<?xml version="1.0" encoding="UTF-8" standalone="no"?>
<!-- Created with Inkscape (http://www.inkscape.org/) -->

<svg
   width="210mm"
   height="297mm"
   viewBox="0 0 210 297"
   version="1.1"
   id="svg1"
   xml:space="preserve"
   xmlns="http://www.w3.org/2000/svg"
   xmlns:svg="http://www.w3.org/2000/svg"><defs
     id="defs1" /><g
     id="layer1"><path
       style="fill:#3b82f6;fill-opacity:1;fill-rule:nonzero;stroke:none;stroke-width:1.85561"
       d="M 188.30416,80.486613 C 183.32625,71.833599 173.98155,64.218282 165.96897,58.47681 138.74009,38.965744 104.69436,33.297078 72.842561,44.018692 c -9.838776,3.311823 -19.211773,8.361212 -27.63508,14.401462 -2.461363,1.765016 -7.430252,4.583767 -8.208033,7.681074 -1.374394,5.473194 0.277544,12.775268 1.395071,18.17101 4.393812,21.214622 18.962746,40.467592 37.855103,50.843062 5.869278,3.22335 12.33475,5.93705 18.928134,7.2853 1.839661,0.37618 4.893144,1.46569 6.700494,0.69869 3.24185,-1.37574 6.47469,-7.36572 8.87927,-9.97757 5.56284,-6.04226 12.10419,-11.59144 18.49088,-16.74615 11.72388,-9.46239 24.21991,-18.001319 37.47769,-25.172356 7.04314,-3.809595 14.67704,-6.703895 21.57807,-10.716601 M 19.086655,85.407925 C 8.8593398,102.05817 2.2933027,119.16211 0.94953139,138.78526 -2.2871406,186.05051 29.59668,232.89449 75.492493,245.9185 c 0,-4.98924 -0.408375,-10.17585 0.06427,-15.14251 0.331727,-3.48589 1.71239,-8.36655 0.657222,-11.73545 C 72.154309,206.07892 61.934541,195.08209 53.319131,184.96991 43.135243,173.01677 33.624815,160.93148 26.755765,146.73507 20.333555,133.46219 17.123246,118.27994 17.194134,103.57894 17.2218,97.839817 19.88437,90.935462 19.086659,85.407925 M 92.149253,189.51267 h 0.378571 c 17.358236,-31.17852 54.314276,-48.53745 88.583646,-51.79883 9.88631,-0.94087 19.33097,0.29648 29.14934,1.07142 -0.008,-12.02191 -3.4082,-24.59508 -8.11166,-35.58489 -0.98935,-2.3117 -3.38818,-9.563373 -5.97459,-10.301233 -2.18504,-0.623338 -6.62599,2.178103 -8.62753,3.05596 -7.84044,3.438742 -15.66212,7.087783 -23.09231,11.352803 -31.73298,18.21506 -62.34431,45.71134 -72.305467,82.20477 M 29.686411,95.629119 c 0,8.921411 -0.0849,17.706241 1.68425,26.499381 4.269921,21.22283 16.98644,38.43542 30.822774,54.51304 3.538836,4.11206 6.999619,8.27995 10.417775,12.49256 1.579993,1.94722 2.9966,4.75251 5.152657,6.05701 0.795016,-9.73349 5.628371,-20.15531 9.936104,-28.77078 1.798998,-3.598 5.05425,-7.48556 5.963527,-11.35688 C 71.702076,150.80208 52.252457,135.94913 40.033793,117.58576 35.982499,111.4971 30.770747,103.13362 30.443537,95.629119 H 29.686411 M 93.663498,249.70413 c 2.061952,-11.10698 2.582958,-21.12914 8.072212,-31.42071 13.75106,-25.78129 46.90084,-41.74768 75.59014,-40.49129 9.20987,0.40329 17.27768,3.23913 26.12083,5.28498 4.27521,-9.64499 5.50769,-20.32614 6.81413,-30.66359 -38.4536,-7.93278 -80.91662,7.99973 -104.34165,39.37052 -9.117031,12.20954 -15.478972,26.90138 -17.555539,42.02045 -0.481542,3.50605 -0.757116,7.06013 -0.757116,10.59977 0,1.1206 -0.337021,2.98896 0.389066,3.94131 0.962627,1.26257 4.209404,1.24331 5.667927,1.35856 m 12.492562,0.37856 c 29.69314,0 57.80741,-12.76567 77.3334,-35.20634 4.87323,-5.60066 11.2344,-12.27352 13.90022,-19.30669 -8.41032,-4.78166 -19.42828,-4.88263 -28.77077,-4.19778 -31.04427,2.27563 -62.44075,25.40888 -62.46285,58.71081 z"
       id="path1" /></g></svg>
